# AST/ASF file generated using VICON BodyLanguage
# -----------------------------------------------
:version 1.10
:name VICON
:units
  mass 1.0
  length 0.45
  angle deg
:documentation
   .ast/.asf automatically generated from VICON data using
   VICON BodyBuilder and BodyLanguage model FoxedUp or BRILLIANT.MOD
:root
   order TX TY TZ RX RY RZ
   axis XYZ
   position 0 0 0  
   orientation 0 0 0 
:bonedata
  begin
     id 1 
     name lhipjoint
     direction 0.653368 -0.678499 0.335782 
     length 2.51848 
     axis 0 0 0  XYZ
  end
  begin
     id 2 
     name lfemur
     direction 0.34202 -0.939693 0  
     length 6.57749  
     axis 0 0 20  XYZ
    dof rx ry rz
    limits (-160.0 20.0)
           (-70.0 70.0)
           (-60.0 70.0)
  end
  begin
     id 3 
     name ltibia
     direction 0.34202 -0.939693 0   
     length 7.94618   
     axis 0 0 20   XYZ
    dof rx
    limits (-10.0 170.0)
  end
  begin
     id 4 
     name lfoot
     direction 0.0811271 -0.222895 0.971461   
     length 2.31339   
     axis -90 7.62852e-016 20   XYZ
    dof rx rz
    limits (-45.0 90.0)
           (-70.0 20.0)
  end
  begin
     id 5 
     name ltoes
     direction 1.53568e-011 -4.21885e-011 1   
     length 1.15935   
     axis -90 7.62852e-016 20   XYZ
    dof rx
    limits (-90.0 20.0)
  end
  begin
     id 6 
     name rhipjoint
     direction -0.640058 -0.688614 0.340788   
     length 2.48149  
     axis 0 0 0  XYZ 
  end
  begin
     id 7 
     name rfemur
     direction -0.34202 -0.939693 0   
     length 6.57875   
     axis 0 0 -20   XYZ
    dof rx ry rz
    limits (-160.0 20.0)
           (-70.0 70.0)
           (-70.0 60.0)
  end
  begin
     id 8 
     name rtibia
     direction -0.34202 -0.939693 0   
     length 7.977   
     axis 0 0 -20   XYZ
    dof rx
    limits (-10.0 170.0)
 end
 begin
     id 9 
     name rfoot
     direction -0.0979793 -0.269196 0.958089   
     length 2.19857  
     axis -90 -7.62852e-016 -20   XYZ
    dof rx rz
    limits (-45.0 90.0)
           (-20.0 70.0)
  end
  begin
     id 10 
     name rtoes
     direction -1.53556e-011 -4.21868e-011 1   
     length 1.09838   
     axis -90 -7.62852e-016 -20   XYZ
    dof rx
    limits (-90.0 20.0)
  end
  begin
     id 11 
     name lowerback
     direction 0.0149039 0.998517 -0.0523597   
     length 2.10809   
     axis 0 0 0   XYZ
    dof rx ry rz
    limits (-20.0 45.0)
           (-30.0 30.0)
           (-30.0 30.0)
  end
  begin
     id 12 
     name upperback
     direction -0.00882659 0.999418 -0.0329624   
     length 2.1102   
     axis 0 0 0   XYZ
    dof rx ry rz
    limits (-20.0 45.0)
           (-30.0 30.0)
           (-30.0 30.0)
  end
  begin
     id 13 
     name thorax
     direction -0.0165585 0.999826 -0.0085833   
     length 2.11039   
     axis 0 0 0   XYZ
    dof rx ry rz
    limits (-20.0 45.0)
           (-30.0 30.0)
           (-30.0 30.0)
  end
  begin
     id 14 
     name lowerneck
     direction -0.0130877 0.999911 0.00260353   
     length 1.73253   
     axis 0 0 0   XYZ
    dof rx ry rz
    limits (-20.0 45.0)
           (-30.0 30.0)
           (-30.0 30.0)
  end
  begin
     id 15 
     name upperneck
     direction -0.0348454 0.928205 -0.370435   
     length 1.66692   
     axis 0 0 0   XYZ
    dof rx ry rz
    limits (-20.0 45.0)
           (-30.0 30.0)
           (-30.0 30.0)
  end
  begin
     id 16
     name head
     direction -0.00807754 0.992494 -0.122026  
     length 1.72765  
     axis 0 0 0   XYZ
    dof rx ry rz
    limits (-20.0 45.0)
           (-30.0 30.0)
           (-30.0 30.0)
  end
  begin
     id 17 
     name lclavicle
     direction 0.987582 0.144023 0.0627671  
     length 3.49235  
     axis 0 0 0   XYZ
    dof ry rz
    limits (-20.0 10.0)
           (0.0 20.0)
  end
  begin
     id 18 
     name lhumerus
     direction 1 -4.48958e-011 -1.45183e-018   
     length 5.41917   
     axis 180 -30 -90   XYZ
    dof rx ry rz
    limits (-60.0 90.0)
           (-90.0 90.0)
           (-90.0 90.0)
  end
  begin
     id 19
     name lradius
     direction 1 -4.48999e-011 5.75106e-027   
     length 2.44373   
     axis 180 -30 -90   XYZ
    dof rx
    limits (-10.0 170.0)
  end
  begin
     id 20
     name lwrist
     direction 1 -4.48987e-011 1.53461e-026   
     length 1.22186   
     axis -1.09697e-014 90 90   XYZ
    dof ry
    limits (-180.0 0.0)
 end
  begin
     id 21 
     name lhand
     direction 1 -4.48881e-011 3.06923e-026   
     length 0.727502   
     axis -1.95843e-014 90 90   XYZ
    dof rx rz
    limits (-90.0 90.0)
           (-45.0 45.0)
  end
  begin
     id 22 
     name lfingers
     direction 1 -4.48907e-011 6.13845e-026   
     length 0.586531   
     axis -3.91686e-014 90 90   XYZ
    dof rx
    limits (0.0 90.0)
  end
  begin
     id 23
     name lthumb
     direction 0.707107 -6.3487e-011 0.707107   
     length 0.842145   
     axis -90 45 2.85299e-015   XYZ
    dof rx rz
    limits (-45.0 45.0)
           (-45.0 45.0)
  end
  begin
     id 24 
     name rclavicle
     direction -0.980998 0.169556 0.0943023   
     length 3.29272  
     axis 0 0 0   XYZ 
    dof ry rz
    limits (-10.0 20.0)
           (-20.0 0.0)
  end
  begin
     id 25 
     name rhumerus
     direction -1 -1.83355e-005 2.45537e-005  
     length 5.58976   
     axis 180 30 90   XYZ
    dof rx ry rz
    limits (-90.0 60.0)
           (-90.0 90.0)
           (-90.0 90.0)
  end
  begin
     id 26 
     name rradius
     direction -1 -4.48967e-011 5.97228e-027   
     length 2.4806   
     axis 180 30 90   XYZ
    dof rx
    limits (-10.0 170.0)
  end
  begin
     id 27 
     name rwrist
     direction -1 -4.48963e-011 1.53461e-026   
     length 1.2403   
     axis -1.09697e-014 -90 -90   XYZ
    dof ry
    limits (-180.0 0.0)
  end
  begin
     id 28
     name rhand
     direction -1 -4.48881e-011 3.06923e-026   
     length 0.816009   
     axis -1.95843e-014 -90 -90   XYZ
    dof rx rz
    limits (-90.0 90.0)
           (-45.0 45.0)
  end
  begin
     id 29
     name rfingers
     direction -1 -4.49018e-011 6.13845e-026   
     length 0.657887   
     axis -3.91686e-014 -90 -90   XYZ
    dof rx
    limits (0.0 90.0)
  end
  begin
     id 30
     name rthumb
     direction -0.707107 -6.34872e-011 0.707107   
     length 0.944599   
     axis -90 -45 -2.85299e-015   XYZ
    dof rx rz
    limits (-45.0 45.0)
           (-45.0 45.0)
  end
:hierarchy
  begin
    root lhipjoint rhipjoint lowerback
    lhipjoint lfemur
    lfemur ltibia
    ltibia lfoot
    lfoot ltoes
    rhipjoint rfemur
    rfemur rtibia
    rtibia rfoot
    rfoot rtoes
    lowerback upperback
    upperback thorax
    thorax lowerneck lclavicle rclavicle
    lowerneck upperneck
    upperneck head
    lclavicle lhumerus
    lhumerus lradius
    lradius lwrist
    lwrist lhand lthumb
    lhand lfingers
    rclavicle rhumerus
    rhumerus rradius
    rradius rwrist
    rwrist rhand rthumb
    rhand rfingers
  end

#!OML:ASF F:\VICON\USERDATA\INSTALL\rory3\rory3.ASF
:FULLY-SPECIFIED
:DEGREES
17
root 0.714528 16.5623 33.9451 -156.588 4.55178 -178.502
lowerback -2.70779 -2.36182 -2.42047
upperback -6.4131 -2.68794 1.39581
thorax -4.93309 -0.996013 2.82344
lowerneck -16.5484 1.34464 2.33659
upperneck 32.6251 4.70278 -3.12185
head 14.0187 2.67848 -0.679458
rclavicle 2.38045e-014 1.27222e-014
rhumerus -35.2041 23.3102 -89.1362
rradius 59.5598
rwrist -40.0185
rhand 8.21198 7.04526
rfingers 7.12502
rthumb 33.4286 -19.8635
lclavicle 2.38045e-014 1.27222e-014
lhumerus -31.0188 -55.1987 103.928
lradius 42.9964
lwrist -4.93417
lhand 19.5018 14.4601
lfingers 7.12502
lthumb 44.0707 38.3166
rfemur -63.0815 -0.845011 19.0672
rtibia 51.9069
rfoot -15.7726 -20.1757
rtoes 19.8885
lfemur -37.675 6.47706 -30.2649
ltibia 42.4816
lfoot -42.9522 21.3721
ltoes 3.19636
18
root 0.723386 16.591 33.8935 -156.51 4.26501 -178.379
lowerback -2.69462 -2.41515 -2.34508
upperback -6.31286 -2.768 1.45836
thorax -4.82996 -1.04598 2.84526
lowerneck -17.2651 1.39294 2.44153
upperneck 32.5414 4.63117 -3.15482
head 14.1421 2.61294 -0.719939
rclavicle -1.45113e-014 7.15625e-015
rhumerus -34.4342 22.7637 -88.2998
rradius 57.6464
rwrist -39.6449
rhand 7.74872 7.33751
rfingers 7.12502
rthumb 32.9881 -19.6652
lclavicle -1.45113e-014 7.15625e-015
lhumerus -28.9154 -55.4091 102.403
lradius 40.5887
lwrist -8.06475
lhand 19.6747 13.9957
lfingers 7.12502
lthumb 44.232 37.7916
rfemur -63.7915 0.0745457 18.5314
rtibia 50.4849
rfoot -13.3018 -20.6375
rtoes 17.4164
lfemur -37.1241 6.63049 -30.0464
ltibia 41.6431
lfoot -42.4697 21.1591
ltoes 3.37867
19
root 0.737724 16.6203 33.8413 -156.389 4.18403 -178.723
lowerback -2.59937 -2.47752 -2.77485
upperback -6.40081 -2.85459 1.33025
thorax -4.95799 -1.06518 2.95942
lowerneck -17.6771 1.47883 2.5449
upperneck 32.4605 4.60403 -3.03861
head 14.1955 2.60375 -0.694465
rclavicle 2.62396e-014 1.03368e-014
rhumerus -34.0261 22.0718 -87.5679
rradius 55.9311
rwrist -39.1653
rhand 7.37089 7.41704
rfingers 7.12502
rthumb 32.6287 -19.6608
lclavicle 2.62396e-014 1.03368e-014
lhumerus -27.3244 -55.2166 101.044
lradius 38.4298
lwrist -11.2556
lhand 21.2076 13.1396
lfingers 7.12502
lthumb 45.6584 36.375
rfemur -64.7393 1.07031 17.2909
rtibia 49.3317
rfoot -10.4867 -21.3402
rtoes 14.1959
lfemur -36.5871 6.74097 -30.3627
ltibia 40.7323
lfoot -42.1159 21.0207
ltoes 3.45502
20
root 0.746657 16.6472 33.7855 -156.283 4.07302 -179.129
lowerback -2.682 -2.64934 -3.26471
upperback -6.46902 -3.07718 1.30563
thorax -4.94543 -1.14809 3.20743
lowerneck -17.7706 1.67244 2.59631
upperneck 32.2214 4.81627 -3.07252
head 14.1211 2.67861 -0.683352
rclavicle -4.6615e-014 1.03368e-014
rhumerus -33.621 21.6711 -86.6887
rradius 54.168
rwrist -38.5423
rhand 7.366 6.33725
rfingers 7.12502
rthumb 32.624 -20.7415
lclavicle -4.6615e-014 1.03368e-014
lhumerus -25.4993 -54.5349 99.4898
lradius 36.287
lwrist -14.2806
lhand 17.5308 13.5726
lfingers 7.12502
lthumb 42.2283 38.0857
rfemur -65.7134 2.21181 15.7091
rtibia 48.4027
rfoot -9.25367 -22.0824
rtoes 14.6107
lfemur -35.9855 6.83377 -30.7596
ltibia 39.7829
lfoot -41.7685 20.8728
ltoes 3.32986
21
root 0.760275 16.6744 33.7355 -156.168 3.91187 -179.337
lowerback -2.82696 -2.75834 -3.63785
upperback -6.41648 -3.22133 1.31256
thorax -4.77781 -1.20782 3.41571
lowerneck -18.1776 1.81257 2.78754
upperneck 32.0403 4.8851 -3.14433
head 14.1415 2.69057 -0.733284
rclavicle -5.17337e-014 -3.57812e-015
rhumerus -32.9596 21.2267 -85.6944
rradius 52.3915
rwrist -37.9706
rhand 7.53271 6.36323
rfingers 7.12502
rthumb 32.7826 -20.6826
lclavicle -5.17337e-014 -3.57812e-015
lhumerus -23.0918 -53.755 97.5014
lradius 34.05
lwrist -17.0201
lhand 19.0428 13.2563
lfingers 7.12502
lthumb 43.6424 37.2712
rfemur -66.8227 3.87478 13.8852
rtibia 47.7076
rfoot -9.12848 -23.4598
rtoes 17.0141
lfemur -35.4103 6.8304 -30.8881
ltibia 38.8075
lfoot -41.3079 21.0206
ltoes 2.73099
22
root 0.769865 16.7003 33.6762 -156.098 3.90224 -179.479
lowerback -2.81664 -2.72448 -3.85367
upperback -6.40859 -3.18117 1.20475
thorax -4.77419 -1.18064 3.42435
lowerneck -18.8679 1.84978 3.03553
upperneck 32.0814 4.76782 -3.14114
head 14.3148 2.63854 -0.789952
rclavicle 2.82771e-014 -2.78299e-015
rhumerus -32.5092 20.2625 -84.6757
rradius 50.745
rwrist -37.1607
rhand 7.46446 6.4663
rfingers 7.12502
rthumb 32.7177 -20.5931
lclavicle 2.82771e-014 -2.78299e-015
lhumerus -20.8817 -53.2479 95.6222
lradius 31.9297
lwrist -19.1127
lhand 19.0845 13.2238
lfingers 7.12502
lthumb 43.6813 37.2246
rfemur -67.904 5.34411 12.27
rtibia 47.1838
rfoot -8.86084 -24.531
rtoes 18.0191
lfemur -34.7844 7.08443 -31.0423
ltibia 37.917
lfoot -40.8978 21.1316
ltoes 1.89357
23
root 0.773911 16.7214 33.6137 -155.954 3.7765 -179.68
lowerback -2.80576 -2.74688 -3.99978
upperback -6.41764 -3.21324 1.12705
thorax -4.78431 -1.19039 3.426
lowerneck -19.9524 1.8913 3.10899
upperneck 32.3416 4.69514 -3.07026
head 14.6714 2.5876 -0.775446
rclavicle -4.42296e-014 -3.97569e-015
rhumerus -31.9744 19.4544 -83.6035
rradius 48.8282
rwrist -36.1526
rhand 7.02918 3.95189
rfingers 7.12502
rthumb 32.3035 -23.1927
lclavicle -4.42296e-014 -3.97569e-015
lhumerus -18.5181 -52.0769 93.5681
lradius 29.9937
lwrist -21.5451
lhand 18.2599 13.5332
lfingers 7.12502
lthumb 42.9108 37.8106
rfemur -68.9853 6.15882 11.0127
rtibia 46.8085
rfoot -9.11273 -24.9024
rtoes 19.6863
lfemur -34.2884 7.27175 -31.2644
ltibia 37.1482
lfoot -40.4521 21.1082
ltoes 1.13936
24
root 0.784421 16.7309 33.5575 -155.823 3.77147 -179.77
lowerback -2.92818 -2.77949 -4.12006
upperback -6.63907 -3.2257 1.06904
thorax -4.94506 -1.17001 3.43223
lowerneck -19.539 1.83242 3.0538
upperneck 32.1797 4.59215 -2.94402
head 14.4953 2.56584 -0.738563
rclavicle -1.38652e-014 1.70955e-014
rhumerus -31.9379 18.8097 -82.7175
rradius 46.921
rwrist -34.9825
rhand 7.16512 5.07581
rfingers 7.12502
rthumb 32.4329 -22.0424
lclavicle -1.38652e-014 1.70955e-014
lhumerus -17.1282 -50.503 92.1286
lradius 28.1804
lwrist -24.0971
lhand 16.5253 14.2796
lfingers 7.12502
lthumb 41.2854 39.1046
rfemur -70.0128 6.92394 10.147
rtibia 46.5541
rfoot -10.4919 -24.8066
rtoes 23.4325
lfemur -33.871 7.41206 -31.3553
ltibia 36.4883
lfoot -40.1934 20.9941
ltoes 1.25537
25
root 0.800662 16.7386 33.5082 -155.749 3.62648 -179.767
lowerback -2.87526 -2.86386 -4.22711
upperback -6.7711 -3.32635 1.12626
thorax -5.09755 -1.19979 3.55771
lowerneck -19.3632 1.78469 2.78343
upperneck 31.9671 4.48711 -2.67767
head 14.3411 2.52045 -0.607821
rclavicle 1.68967e-014 7.15625e-015
rhumerus -31.6374 18.2463 -81.709
rradius 44.6327
rwrist -33.777
rhand 6.60328 8.4256
rfingers 7.12502
rthumb 31.898 -18.8007
lclavicle 1.68967e-014 7.15625e-015
lhumerus -15.5107 -48.665 90.4835
lradius 26.4892
lwrist -26.6138
lhand 14.6539 15.2866
lfingers 7.12502
lthumb 39.5258 40.6539
rfemur -70.9072 7.75953 9.38888
rtibia 46.3704
rfoot -11.9858 -24.7678
rtoes 25.9683
lfemur -33.5125 7.44234 -31.2458
ltibia 35.9624
lfoot -39.8171 21.193
ltoes 0.724853
26
root 0.81568 16.7423 33.455 -155.761 3.33407 -180.096
lowerback -2.8047 -3.01027 -4.5406
upperback -6.73804 -3.53349 1.07727
thorax -5.0703 -1.29186 3.68518
lowerneck -19.6427 1.79021 2.72258
upperneck 31.7236 4.40045 -2.62689
head 14.2883 2.45551 -0.595033
rclavicle -2.04251e-014 6.36111e-015
rhumerus -31.106 17.6224 -80.6021
rradius 42.6412
rwrist -32.2721
rhand 6.08544 8.46365
rfingers 7.12502
rthumb 31.4047 -18.8599
lclavicle -2.04251e-014 6.36111e-015
lhumerus -13.4065 -45.8061 88.4356
lradius 24.8343
lwrist -29.807
lhand 18.3158 13.8734
lfingers 7.12502
lthumb 42.963 38.1324
rfemur -71.6097 7.93753 8.79177
rtibia 46.2719
rfoot -11.8625 -24.9795
rtoes 24.7948
lfemur -33.0527 7.35618 -31.4291
ltibia 35.5347
lfoot -39.5442 20.9371
ltoes 0.719345
27
root 0.831909 16.7376 33.3952 -155.764 3.16325 -180.288
lowerback -2.5689 -3.00837 -4.73481
upperback -6.64632 -3.56195 0.992222
thorax -5.09953 -1.30648 3.71509
lowerneck -20.7728 1.82444 2.77044
upperneck 31.8068 4.27228 -2.53002
head 14.5701 2.37212 -0.578713
rclavicle -4.97459e-014 -9.14409e-015
rhumerus -30.4403 16.6078 -79.3921
rradius 40.6924
rwrist -30.555
rhand 5.5297 8.84526
rfingers 7.12502
rthumb 30.8751 -18.58
lclavicle -4.97459e-014 -9.14409e-015
lhumerus -10.986 -42.8332 86.312
lradius 23.3934
lwrist -32.7474
lhand 14.769 16.2985
lfingers 7.12502
lthumb 39.6342 41.6339
rfemur -72.1212 7.45765 9.19112
rtibia 46.2248
rfoot -12.363 -24.1421
rtoes 27.941
lfemur -32.6218 7.50935 -31.5399
ltibia 35.1821
lfoot -39.3217 20.4805
ltoes 0.557729
